PathFileType	4	(X/Y/Z)	C:/Users/beibeiliu/ov580/test_trc\sequence.38_training_dense_right.trc
DataRate	CameraRate	NumFrames	NumMarkers	Units	OrigDataRate	OrigDataStartFrame	OrigNumFrames
120	120	14	19	mm	120	53	79
Frame#	Time	ThumbCMC			ThumbMCP			ThumbIP			ThumbTip			IndexMCP			IndexPIP			IndexTip			MiddleMCP			MiddlePIP			MiddleTip			RingMCP			RingPIP			RingTip			PinkyMCP			PinkyPIP			PinkyTip			BackHand1			BackHand2			BackHand3	
		X0	Y0	Z0	X1	Y1	Z1	X2	Y2	Z2	X3	Y3	Z3	X4	Y4	Z4	X5	Y5	Z5	X6	Y6	Z6	X7	Y7	Z7	X8	Y8	Z8	X9	Y9	Z9	X10	Y10	Z10	X11	Y11	Z11	X12	Y12	Z12	X13	Y13	Z13	X14	Y14	Z14	X15	Y15	Z15	X16	Y16	Z16	X17	Y17	Z17	X18	Y18	Z18	
52	0.433333	100.352	48.9151	139.268	78.0065	29.3599	122.174	80.826	5.709	106.378	92.3336	-15.2967	99.6768	88.8691	6.51225	75.5257	73.7188	-7.0637	63.3576	67.3979	-28.7606	49.4072	100.105	-9.07496	73.5001	83.3259	-21.704	64.5996	70.8831	-44.0524	49.6162	110.731	-20.6711	80.8384	97.3717	-35.498	70.883	83.9287	-53.3351	55.5976	124.642	-25.9575	95.8141	111.668	-38.6904	84.4673	102.946	-50.4405	66.7335	147.433	10.9548	111.639	157.41	29.2625	136.896	132.49	41.6963	119.246	
53	0.441667	117.037	64.0529	136.635	88.559	56.1212	118.288	80.9854	33.1739	104.772	87.8016	2.94252	99.7187	96.2738	28.33	73.9252	78.8689	16.3555	62.4779	62.1509	0.248558	50.3158	99.3107	10.5286	71.9024	77.8854	-3.92705	58.4065	59.6387	-17.6791	47.1537	104.255	-10.3339	79.5208	87.8308	-19.3008	69.6917	64.6856	-27.1524	53.9212	114.988	-19.5149	96.8127	99.2316	-29.0812	86.048	85.4467	-33.3414	67.4952	148.693	11.6794	113.776	162.458	23.7394	135.638	144.542	47.8143	115.9	
54	0.45	134.143	68.6303	138.014	108.632	72.0427	119.991	93.5423	52.2433	100.891	89.8603	28.77	98.775	105.487	42.5526	69.4627	85.2102	38.9471	54.2764	68.6807	29.6526	43.0391	104.449	25.0919	67.8824	81.9205	19.6776	52.4992	62.1212	15.782	39.2828	103.028	8.28467	76.4807	85.8989	0.0791659	64.9801	65.4872	-1.1843	49.5733	107.076	-6.09457	91.3064	89.7341	-9.00906	79.278	73.5599	-14.3154	59.1347	146.08	14.6042	111.907	164.317	17.5931	138.007	154.892	47.1864	115.164	
55	0.458333	149.775	70.3569	137.474	128.224	79.5596	116.316	110.007	70.4561	99.3275	100.481	42.4942	97.4064	123.126	57.3928	67.6889	104.073	55.7405	51.5788	87.3302	52.5787	36.4684	116.267	37.7417	65.6031	96.8649	39.5275	48.5921	73.8501	38.5973	28.4995	109.816	19.0514	75.5904	91.2373	25.1192	56.4039	72.2581	21.0816	39.7511	108.186	7.93644	90.2317	89.805	7.50208	74.0527	79.542	10.9327	54.3265	148.279	14.1002	111.161	163.691	14.2282	139.695	165.565	46.9844	117.522	
56	0.466667	164.698	66.8488	137.563	145.607	81.8931	115.413	128.22	72.5152	95.7171	113.083	50.7865	92.5712	141.526	57.118	66.2296	129.352	63.4062	49.1006	111.752	63.1518	27.5817	131.934	41.6395	63.6583	115.706	45.5907	46.1082	98.9198	51.5436	22.4026	121.459	28.6414	72.4261	104.074	30.0808	52.5933	88.7715	34.2312	33.7927	114.028	17.6396	86.1895	98.3541	18.7237	70.0468	86.8888	21.1958	48.6879	150.347	11.5154	114.756	164.108	8.4024	139.877	173.305	36.498	120.07	
57	0.475	180.09	56.0498	139.281	165.881	71.7613	111.059	147.067	65.8255	87.6617	132.157	47.3342	89.0187	167.534	46.4043	66.2463	155.324	50.3691	44.3747	140.876	52.5116	22.1537	150.246	30.7285	62.0481	140.512	38.1662	38.2131	128.073	42.1559	15.9867	135.855	19.5459	70.3438	126.143	25.4629	48.799	117.218	34.2468	24.4989	123.927	11.2998	81.0788	117.767	19.723	65.1528	109.451	21.3796	38.6458	159.692	4.59792	115.666	165.214	-1.63354	140.342	183.734	21.5667	123.432	
58	0.483333	196.71	38.1831	138.288	187.872	56.4813	112.533	173.702	52.3731	86.9691	151.941	30.723	85.4229	191.409	23.6232	68.423	187.785	29.6896	42.154	178.194	30.5469	20.5636	175.98	10.8027	64.04	167.702	14.9828	36.0182	165.151	20.8584	8.72165	161.9	4.78643	68.6095	150.655	7.56298	43.9885	147.883	13.4752	21.3832	143.095	-2.58547	80.9247	138.677	3.28436	60.3242	135.617	2.94545	36.003	168.255	-11.2582	120.017	173.533	-16.1482	149.232	198.242	2.81591	130.33	
59	0.491667	212.671	22.3964	143.924	210.46	40.4485	113.585	194.053	28.7549	90.7225	175.607	14.6801	85.4833	220.109	4.03557	74.0569	215.243	5.68481	49.8766	208.042	3.19684	24.771	201.476	-9.17247	65.2546	199.363	-7.15383	40.6747	198.235	-6.15679	16.093	183.69	-16.8539	70.9237	179.95	-14.9293	46.4773	177.665	-11.2528	22.1926	164.782	-19.9208	84.2559	162.593	-16.3618	62.3301	165.266	-15.0883	39.4444	186.292	-25.5268	119.995	186.48	-29.4731	153.815	213.625	-14.6971	138.257	
60	0.5	231.515	15.3909	153.263	228.675	25.239	121.762	219.11	17.3834	94.7536	198.863	-1.17343	86.3167	244.376	-14.2167	82.0986	246.784	-11.4382	56.2797	245.815	-15.7351	32.3845	231.018	-25.1518	78.6274	233.408	-23.162	52.8873	232.393	-28.9048	20.6206	211.198	-33.494	75.6538	211.029	-32.1898	54.1779	213.189	-31.7412	27.1753	189.543	-35.3886	88.864	196.691	-30.7969	65.3287	196.007	-37.0899	44.2339	205.71	-39.9623	129.383	202.594	-39.8036	159.94	232.749	-25.3148	145.027	
61	0.508333	244.823	11.5665	157.162	245.773	25.9881	126.638	238.432	12.3653	98.3634	220.955	-8.30557	95.7588	268.697	-17.2765	98.284	270.835	-20.2707	69.715	276.029	-22.4778	48.9979	252.497	-33.0724	89.3088	262.829	-32.104	62.7327	268.494	-35.9485	36.5762	239.555	-38.912	87.8272	242.675	-41.1978	66.9065	247.672	-44.2093	40.5643	219.618	-42.9218	94.3103	221.47	-43.6234	75.5547	233.938	-49.0041	50.1987	224.818	-43.7974	136.394	218.182	-42.7549	166.33	250.615	-24.6302	157.162	
62	0.516667	251.725	18.4265	164.356	252.495	27.8265	132.04	249.905	10.4626	103.56	236.58	-10.9085	99.0851	282.475	-12.1014	107.421	287.957	-13.5675	83.8632	299.003	-17.8185	60.0386	276.118	-29.9058	94.8643	284.101	-27.794	74.674	293.201	-35.3709	46.9693	257.758	-39.3015	97.5165	270.064	-39.2022	73.784	278.804	-44.3991	48.5929	237.598	-46.2874	102.648	248.476	-44.5841	81.8918	262.098	-48.4947	61.7463	241.727	-40.5483	147.37	230.275	-41.1065	175.229	260.102	-18.4925	163.677	
63	0.525	248.523	29.6916	164.128	249.499	35.7275	132.26	252.823	20.0456	106.202	244.236	-9.35736	101.598	289.779	3.71685	112.191	302.534	6.81504	88.8349	309.017	-3.33733	66.4595	286.667	-14.7922	103.61	295.649	-13.6962	83.3784	311.393	-21.2082	55.6949	273.162	-28.9856	104.325	284.107	-30.114	82.0268	296.386	-31.7482	60.4714	255.718	-39.7439	108.586	265.943	-35.8309	91.6259	282.18	-41.6099	72.2404	257.242	-32.5617	150.467	241.273	-30.9789	179.96	266.066	-2.00839	168.869	
64	0.533333	230.787	37.8753	165.343	236.685	44.927	127.848	243.475	31.233	105.193	247.253	-0.65931	104.687	286.333	30.3732	115.218	298.641	30.5619	88.4137	309.753	22.5024	69.2593	290.752	10.9176	106.952	300.158	7.38611	84.6478	316.408	9.05794	62.448	283.217	-9.61909	108.05	297.749	-10.8754	84.383	308.377	-7.75592	67.8339	270.606	-24.5243	113.178	281.871	-22.6395	93.9305	297.985	-25.3093	77.9414	265.093	-17.0511	152.946	250.027	-18.6228	181.892	260.539	14.5914	170.907	
65	0.541667	212.802	42.9886	157.628	215.479	45.6097	125.166	230.098	35.0826	102.532	241.769	9.63937	102.541	268.626	48.0267	110.026	282.123	45.7283	84.6655	294.655	44.925	67.2263	284.781	28.8224	103.169	292.681	30.649	83.4829	306.255	35.2334	60.4033	282.57	13.8691	106.331	294.095	15.5507	86.6833	308.266	19.6562	65.2764	276.82	-6.19522	113.481	288.053	-4.9974	92.908	300.989	-0.369203	78.7761	264.006	3.03945	156	248.577	0.548017	182.511	251.67	31.8444	165.771	
